<svg width="178" height="102" viewBox="0 0 178 102" fill="none" xmlns="http://www.w3.org/2000/svg">
<path d="M25.0655 3.62881C25.0655 4.51496 24.3059 6.28727 23.04 9.19892C21.6475 12.1106 20.5081 14.3892 19.8752 16.035C17.0901 22.6178 15.0646 28.5677 13.9253 34.0112C12.7859 39.4547 12.153 45.1514 12.153 50.9747C12.153 56.2917 12.6593 61.6086 13.6721 66.6723C14.5582 71.6095 16.0774 76.6732 18.1029 81.7369C19.1156 84.3954 20.6347 87.6868 22.407 91.358C24.1793 95.0292 25.0655 97.3079 25.0655 98.1941C25.0655 99.0802 24.8123 99.8398 24.4325 100.346C24.0527 100.853 23.5464 101.106 22.9134 101.106C21.6475 101.106 20.2549 100.473 18.6092 99.0802C17.0901 97.6877 15.1912 95.5356 13.1657 92.624C8.73495 86.2943 5.44352 79.7114 3.29143 72.7488C1.13934 65.7862 0 58.5703 0 50.9747C0 44.0121 0.886154 37.3026 2.65846 30.973C4.55736 24.6433 7.21582 18.5668 10.887 12.6169C13.2923 8.69254 15.4444 5.78089 17.4699 3.7554C19.4954 1.8565 21.2677 0.84375 22.9134 0.84375C23.5464 0.84375 24.0527 1.09694 24.4325 1.60332C24.8123 2.10969 25.0655 2.74265 25.0655 3.62881Z" fill="white"/>
<path d="M151.953 98.1941C151.953 97.3079 152.713 95.5356 154.105 92.7506C155.498 89.8389 156.51 87.6868 157.27 85.9145C160.055 79.3316 162.08 73.2552 163.22 67.8117C164.486 62.3681 164.992 56.798 164.992 50.9747C164.992 45.6578 164.486 40.4675 163.473 35.4037C162.46 30.34 160.941 25.2763 158.916 20.0859C157.776 17.4275 156.384 14.1361 154.611 10.4649C152.839 6.79364 151.953 4.51496 151.953 3.62881C151.953 2.74265 152.206 2.10969 152.586 1.60332C152.966 1.09694 153.599 0.84375 154.232 0.84375C155.624 0.84375 157.017 1.47672 158.536 2.86925C160.055 4.13518 161.954 6.28727 163.979 9.19892C168.41 15.5286 171.702 22.1114 173.854 29.0741C176.006 36.0367 177.145 43.3791 177.145 50.9747C177.145 57.9374 176.259 64.5202 174.36 70.9765C172.588 77.3062 169.803 83.3826 166.131 89.3325C163.6 93.3835 161.321 96.2952 159.422 98.1941C157.523 100.093 155.751 101.106 154.232 101.106C153.599 101.106 152.966 100.853 152.586 100.22C152.206 99.7132 151.953 99.0802 151.953 98.1941Z" fill="white"/>
<path d="M51.7598 68.4263C56.615 68.4263 60.551 64.4903 60.551 59.6351C60.551 54.7798 56.615 50.8439 51.7598 50.8439C46.9045 50.8439 42.9686 54.7798 42.9686 59.6351C42.9686 64.4903 46.9045 68.4263 51.7598 68.4263Z" fill="white"/>
<path d="M125.584 68.4263C120.728 68.4263 116.792 64.4903 116.792 59.6351C116.792 54.7798 120.728 50.8439 125.584 50.8439C130.439 50.8439 134.375 54.7798 134.375 59.6351C134.375 64.4903 130.439 68.4263 125.584 68.4263Z" fill="white"/>
</svg>
