<svg width="25" height="24" viewBox="0 0 25 24" fill="none" xmlns="http://www.w3.org/2000/svg">
<path fill-rule="evenodd" clip-rule="evenodd" d="M9.5 7C9.5 5.34315 10.8431 4 12.5 4C14.1569 4 15.5 5.34315 15.5 7C15.5 8.65685 14.1569 10 12.5 10C10.8431 10 9.5 8.65685 9.5 7ZM12.5 2C9.73858 2 7.5 4.23858 7.5 7C7.5 9.76142 9.73858 12 12.5 12C15.2614 12 17.5 9.76142 17.5 7C17.5 4.23858 15.2614 2 12.5 2ZM8.5 14C7.17392 14 5.90215 14.5268 4.96447 15.4645C4.02678 16.4021 3.5 17.6739 3.5 19V21C3.5 21.5523 3.94772 22 4.5 22C5.05228 22 5.5 21.5523 5.5 21V19C5.5 18.2043 5.81607 17.4413 6.37868 16.8787C6.94129 16.3161 7.70435 16 8.5 16H16.5C17.2956 16 18.0587 16.3161 18.6213 16.8787C19.1839 17.4413 19.5 18.2044 19.5 19V21C19.5 21.5523 19.9477 22 20.5 22C21.0523 22 21.5 21.5523 21.5 21V19C21.5 17.6739 20.9732 16.4021 20.0355 15.4645C19.0979 14.5268 17.8261 14 16.5 14H8.5Z" fill="#2CB67D"/>
</svg>
