<svg width="24" height="24" viewBox="0 0 24 24" fill="none" xmlns="http://www.w3.org/2000/svg">
<path d="M22 11.0799V11.9999C21.9988 14.1563 21.3005 16.2545 20.0093 17.9817C18.7182 19.7088 16.9033 20.9723 14.8354 21.5838C12.7674 22.1952 10.5573 22.1218 8.53447 21.3744C6.51168 20.6271 4.78465 19.246 3.61096 17.4369C2.43727 15.6279 1.87979 13.4879 2.02168 11.3362C2.16356 9.18443 2.99721 7.13619 4.39828 5.49694C5.79935 3.85768 7.69279 2.71525 9.79619 2.24001C11.8996 1.76477 14.1003 1.9822 16.07 2.85986" stroke="#FFFFFE" stroke-width="2" stroke-linecap="round" stroke-linejoin="round"/>
<mask id="path-2-inside-1" fill="white">
<path d="M22 4L12 14.01L9 11.01"/>
</mask>
<path d="M22 4L12 14.01L9 11.01" fill="#C4C4C4"/>
<path d="M38.2716 20.2553C47.2492 11.2688 47.2419 -3.29401 38.2553 -12.2716C29.2688 -21.2492 14.706 -21.2419 5.72842 -12.2553L38.2716 20.2553ZM12 14.01L-4.26346 30.2735C0.051289 34.5882 5.90378 37.0115 12.0057 37.01C18.1077 37.0085 23.959 34.5822 28.2716 30.2653L12 14.01ZM25.2635 -5.25346C16.2814 -14.2355 1.7186 -14.2355 -7.26346 -5.25346C-16.2455 3.7286 -16.2455 18.2914 -7.26346 27.2735L25.2635 -5.25346ZM5.72842 -12.2553L-4.27158 -2.24533L28.2716 30.2653L38.2716 20.2553L5.72842 -12.2553ZM28.2635 -2.25346L25.2635 -5.25346L-7.26346 27.2735L-4.26346 30.2735L28.2635 -2.25346Z" fill="#FFFFFE" mask="url(#path-2-inside-1)"/>
</svg>
